<svg width="62" height="73" viewBox="0 0 62 73" fill="none" xmlns="http://www.w3.org/2000/svg">
<path d="M8.45836 56.8745C2.8223 49.6157 -0.00224417 41.2843 -0.00224335 31.9067C-0.00224256 22.8821 2.9004 15.3094 8.69266 9.1884C14.4849 3.0805 21.6569 0.0200161 30.1826 0.0200168C38.9686 0.0200176 46.3229 3.05435 52.2583 9.10993C58.1807 15.1917 61.1484 22.699 61.1484 31.632C61.1484 40.1334 58.3629 47.2614 52.805 53.0162C47.234 58.771 40.049 61.9099 31.2109 62.4462L31.2109 72.02C21.6829 69.1819 14.0944 64.1334 8.45836 56.8745Z" fill="#E0E0E0" fill-opacity="0.08"/>
<path d="M29.6667 18.0201H25.4C23.1598 18.0201 22.0397 18.0201 21.184 18.4561C20.4314 18.8396 19.8195 19.4515 19.436 20.2041C19 21.0598 19 22.1799 19 24.4201V35.6201C19 37.8603 19 38.9804 19.436 39.8361C19.8195 40.5887 20.4314 41.2006 21.184 41.5841C22.0397 42.0201 23.1598 42.0201 25.4 42.0201H36.6C38.8402 42.0201 39.9603 42.0201 40.816 41.5841C41.5686 41.2006 42.1805 40.5887 42.564 39.8361C43 38.9804 43 37.8603 43 35.6201V31.3534M31 24.6868H36.3333V30.0201M35.6667 18.6868V16.6868M40.9191 20.101L42.3333 18.6868M42.347 25.3534H44.347M19 31.8162C19.8693 31.9505 20.7598 32.0201 21.6667 32.0201C27.5151 32.0201 32.6871 29.1236 35.8262 24.6868" stroke="#F4F4F4" stroke-width="2" stroke-linecap="round" stroke-linejoin="round"/>
</svg>
