<svg xmlns="http://www.w3.org/2000/svg" width="60" height="58" fill="none"><circle cx="27.785" cy="27.461" r="27.461" fill="#fff"></circle><circle cx="35.141" cy="20.105" r="15.202" fill="url(#paint0_linear)"></circle><circle cx="27.785" cy="27.461" r="26.461" stroke="#000" stroke-width="2"></circle><path d="M27.785.98c16.643 10.298 19.9 40.211 0 52.96M26.805 53.941c-15.455-10.297-18.478-40.21 0-52.96M47.89 9.317c-11.768 10.298-29.912 7.846-39.23 0M7.19 45.084c11.768-10.298 29.912-7.846 39.23 0M1.305 26.48h52.96M27.785 53.941V.981" stroke="#000" stroke-width="2"></path><rect x="23.862" y="26.48" width="35.307" height="11.769" rx="2" fill="#fff"></rect><rect x="23.862" y="36.288" width="35.307" height="11.769" rx="2" fill="#fff"></rect><rect x="23.862" y="46.095" width="35.307" height="11.769" rx="2" fill="#fff"></rect><rect x="24.862" y="27.48" width="33.307" height="9.769" rx="1" stroke="#000" stroke-width="2"></rect><rect x="24.862" y="37.288" width="33.307" height="9.769" rx="1" stroke="#000" stroke-width="2"></rect><rect x="24.862" y="47.095" width="33.307" height="9.769" rx="1" stroke="#000" stroke-width="2"></rect><circle cx="54.756" cy="30.894" r="1.471" fill="url(#paint1_linear)"></circle><circle cx="54.756" cy="40.701" r="1.471" fill="url(#paint2_linear)"></circle><circle cx="54.756" cy="50.509" r="1.471" fill="url(#paint3_linear)"></circle><circle cx="54.756" cy="30.894" r="1" stroke="#000" stroke-width=".942"></circle><circle cx="54.756" cy="40.701" r="1" stroke="#000" stroke-width=".942"></circle><circle cx="54.756" cy="50.509" r="1" stroke="#000" stroke-width=".942"></circle><defs><linearGradient id="paint0_linear" x1="19.939" y1="20.105" x2="50.343" y2="20.105" gradientUnits="userSpaceOnUse"><stop stop-color="#FFBD39"></stop><stop offset="1" stop-color="#F9953A"></stop></linearGradient><linearGradient id="paint1_linear" x1="53.285" y1="30.894" x2="56.227" y2="30.894" gradientUnits="userSpaceOnUse"><stop stop-color="#FFBD39"></stop><stop offset="1" stop-color="#F9953A"></stop></linearGradient><linearGradient id="paint2_linear" x1="53.285" y1="40.701" x2="56.227" y2="40.701" gradientUnits="userSpaceOnUse"><stop stop-color="#FFBD39"></stop><stop offset="1" stop-color="#F9953A"></stop></linearGradient><linearGradient id="paint3_linear" x1="53.285" y1="50.509" x2="56.227" y2="50.509" gradientUnits="userSpaceOnUse"><stop stop-color="#FFBD39"></stop><stop offset="1" stop-color="#F9953A"></stop></linearGradient></defs></svg>