<svg xmlns="http://www.w3.org/2000/svg" width="44" height="60" fill="none"><path fill="#fff" d="M40.198 9.356c-7.388 3.574-14.352-3.269-17.494-7.18-.444-.552-1.314-.518-1.727.058-5.341 7.445-13.124 8.71-17.576 7.014-.714-.273-1.592.155-1.649.918-.41 5.53-1.534 23.086.133 30.173 1.932 8.212 14.952 15.954 19.52 17.775a.953.953 0 00.785-.043c13.251-6.714 18.052-13.8 19.532-19.226 1.254-4.595.404-22.858.098-28.623-.041-.775-.923-1.204-1.622-.866z"></path><path stroke="#000" stroke-width="2" d="M40.198 9.356c-7.388 3.574-14.352-3.269-17.494-7.18-.444-.552-1.314-.518-1.727.058-5.341 7.445-13.124 8.71-17.576 7.014-.714-.273-1.592.155-1.649.918-.41 5.53-1.534 23.086.133 30.173 1.932 8.212 14.952 15.954 19.52 17.775a.953.953 0 00.785-.043c13.251-6.714 18.052-13.8 19.532-19.226 1.254-4.595.404-22.858.098-28.623-.041-.775-.923-1.204-1.622-.866z"></path><path fill="url(#paint0_linear)" fill-rule="evenodd" d="M19.917 29.882a1 1 0 011 1v5.968a1 1 0 001 1h5.968a1 1 0 001-1v-5.968a1 1 0 011-1h5.968a1 1 0 001-1v-5.967a1 1 0 00-1-1h-5.968a1 1 0 01-1-1v-5.968a1 1 0 00-1-1h-5.968a1 1 0 00-1 1v5.968a1 1 0 01-1 1H13.95a1 1 0 00-1 1v5.967a1 1 0 001 1h5.967z" clip-rule="evenodd"></path><mask id="a" fill="#fff"><path fill-rule="evenodd" d="M16.82 33.866a1 1 0 011 1v5.967a1 1 0 001 1h5.968a1 1 0 001-1v-5.967a1 1 0 011-1h5.968a1 1 0 001-1v-5.968a1 1 0 00-1-1h-5.968a1 1 0 01-1-1v-5.967a1 1 0 00-1-1h-5.967a1 1 0 00-1 1v5.967a1 1 0 01-1 1h-5.968a1 1 0 00-1 1v5.968a1 1 0 001 1h5.968z" clip-rule="evenodd"></path></mask><path fill="#000" d="M17.82 24.898h-2 2zm0 15.935h-2 2zm2 0v-5.967h-4v5.967h4zm4.968-1h-5.967v4h5.967v-4zm-1-4.967v5.967h4v-5.967h-4zm8.968-3h-5.968v4h5.968v-4zm-1-4.968v5.968h4v-5.968h-4zm-4.968 1h5.968v-4h-5.968v4zm-3-8.967v5.967h4v-5.967h-4zm-4.967 1h5.967v-4h-5.967v4zm1 4.967v-5.967h-4v5.967h4zm-8.968 3h5.968v-4h-5.968v4zm1 4.968v-5.968h-4v5.968h4zm4.968-1h-5.968v4h5.968v-4zm-8.967 1a3 3 0 003 3v-4a1 1 0 011 1h-4zm3-8.968a3 3 0 00-3 3h4a1 1 0 01-1 1v-4zm4.967 1a1 1 0 011-1v4a3 3 0 003-3h-4zm3-8.967a3 3 0 00-3 3h4a1 1 0 01-1 1v-4zm8.967 3a3 3 0 00-3-3v4a1 1 0 01-1-1h4zm-1 4.967a1 1 0 011 1h-4a3 3 0 003 3v-4zm8.968 3a3 3 0 00-3-3v4a1 1 0 01-1-1h4zm-3 8.968a3 3 0 003-3h-4a1 1 0 011-1v4zm-4.968-1a1 1 0 01-1 1v-4a3 3 0 00-3 3h4zm-3 8.967a3 3 0 003-3h-4a1 1 0 011-1v4zm-4.967-8.967a3 3 0 00-3-3v4a1 1 0 01-1-1h4zm-4 5.967a3 3 0 003 3v-4a1 1 0 011 1h-4z" mask="url(#a)"></path><defs><linearGradient id="paint0_linear" x1="12.95" x2="36.853" y1="25.898" y2="25.898" gradientUnits="userSpaceOnUse"><stop stop-color="#FFBD39"></stop><stop offset="1" stop-color="#F9953A"></stop></linearGradient></defs></svg>