<svg width="62" height="73" viewBox="0 0 62 73" fill="none" xmlns="http://www.w3.org/2000/svg">
<path d="M9.12243 56.8745C3.48636 49.6157 0.661818 41.2843 0.661819 31.9067C0.66182 22.8821 3.56446 15.3094 9.35673 9.1884C15.149 3.0805 22.321 0.0200161 30.8467 0.0200168C39.6327 0.0200176 46.9869 3.05435 52.9224 9.10993C58.8448 15.1917 61.8125 22.699 61.8125 31.632C61.8125 40.1334 59.027 47.2614 53.469 53.0162C47.8981 58.771 40.713 61.9099 31.875 62.4462L31.875 72.02C22.347 69.1819 14.7585 64.1334 9.12243 56.8745Z" fill="#E0E0E0" fill-opacity="0.08"/>
<path d="M27.6641 26.02V22.02C27.6641 19.8109 25.8732 18.02 23.6641 18.02C21.4549 18.02 19.6641 19.8109 19.6641 22.02C19.6641 24.2292 21.4549 26.02 23.6641 26.02H27.6641ZM27.6641 26.02V34.02M27.6641 26.02H35.6641M27.6641 34.02V38.02C27.6641 40.2292 25.8732 42.02 23.6641 42.02C21.4549 42.02 19.6641 40.2292 19.6641 38.02C19.6641 35.8109 21.4549 34.02 23.6641 34.02H27.6641ZM27.6641 34.02H35.6641M35.6641 34.02H39.6641C41.8732 34.02 43.6641 35.8109 43.6641 38.02C43.6641 40.2292 41.8732 42.02 39.6641 42.02C37.4549 42.02 35.6641 40.2292 35.6641 38.02V34.02ZM35.6641 34.02V26.02M35.6641 26.02V22.02C35.6641 19.8109 37.4549 18.02 39.6641 18.02C41.8732 18.02 43.6641 19.8109 43.6641 22.02C43.6641 24.2292 41.8732 26.02 39.6641 26.02H35.6641Z" stroke="#F4F4F4" stroke-width="2" stroke-linecap="round" stroke-linejoin="round"/>
</svg>
