<svg width="62" height="73" viewBox="0 0 62 73" fill="none" xmlns="http://www.w3.org/2000/svg">
<path d="M8.7943 56.8745C3.15824 49.6157 0.333693 41.2843 0.333694 31.9067C0.333695 22.8821 3.23634 15.3094 9.0286 9.1884C14.8209 3.0805 21.9929 0.0200161 30.5185 0.0200168C39.3046 0.0200176 46.6588 3.05435 52.5942 9.10993C58.5167 15.1917 61.4844 22.699 61.4844 31.632C61.4844 40.1334 58.6989 47.2614 53.1409 53.0162C47.5699 58.771 40.3849 61.9099 31.5468 62.4462L31.5468 72.02C22.0189 69.1819 14.4304 64.1334 8.7943 56.8745Z" fill="#E0E0E0" fill-opacity="0.08"/>
<path d="M32.6704 16.6868L20.795 30.9372C20.3299 31.4953 20.0974 31.7744 20.0938 32.01C20.0907 32.2149 20.182 32.4098 20.3414 32.5386C20.5247 32.6868 20.888 32.6868 21.6144 32.6868H31.3371L30.0037 43.3534L41.8791 29.103C42.3442 28.5449 42.5767 28.2658 42.5803 28.0302C42.5834 27.8253 42.4921 27.6304 42.3327 27.5016C42.1494 27.3534 41.7862 27.3534 41.0597 27.3534H31.3371L32.6704 16.6868Z" stroke="#F4F4F4" stroke-width="2" stroke-linecap="round" stroke-linejoin="round"/>
</svg>
