<svg xmlns="http://www.w3.org/2000/svg" width="68" height="58" fill="none"><path fill="#fff" fill-rule="evenodd" d="M.1 23.387c0-7.164 5.298-13.017 11.965-13.39C13.56 4.357 18.445.224 24.238.224c3.644 0 6.927 1.634 9.235 4.25 2.18-1.895 4.968-3.031 8.007-3.031 5.417 0 10.04 3.614 11.839 8.693a12.01 12.01 0 011.954-.16c6.983 0 12.644 6.004 12.644 13.41v2.411c0 6.075-4.925 11-11 11H11.1c-6.075 0-11-4.925-11-11v-2.41z" clip-rule="evenodd"></path><path fill="url(#paint0_linear)" fill-rule="evenodd" d="M3.235 27.049c0-4.527 3.347-8.224 7.559-8.46.944-3.562 4.03-6.173 7.69-6.173 2.302 0 4.376 1.032 5.834 2.685 1.377-1.197 3.139-1.915 5.058-1.915 3.423 0 6.343 2.283 7.48 5.491a7.61 7.61 0 011.234-.1c4.411 0 7.987 3.793 7.987 8.471v1.523a6.95 6.95 0 01-6.949 6.95H10.184a6.95 6.95 0 01-6.95-6.95v-1.523z" clip-rule="evenodd"></path><mask id="a" fill="#fff"><path fill-rule="evenodd" d="M.1 23.387c0-7.164 5.298-13.017 11.965-13.39C13.56 4.357 18.445.224 24.238.224c3.644 0 6.927 1.634 9.235 4.25 2.18-1.895 4.968-3.031 8.007-3.031 5.417 0 10.04 3.614 11.839 8.693a12.01 12.01 0 011.954-.16c6.983 0 12.644 6.004 12.644 13.41v2.411c0 6.075-4.925 11-11 11H11.1c-6.075 0-11-4.925-11-11v-2.41z" clip-rule="evenodd"></path></mask><path fill="#000" d="M.1 23.387h2-2zm11.965-13.39l.112 1.996 1.45-.081.371-1.403-1.933-.513zm21.408-5.522l-1.5 1.323 1.313 1.488 1.498-1.301-1.311-1.51zm19.846 5.662l-1.885.668.559 1.577 1.65-.272-.324-1.973zm14.597 13.328l-2-.01v.01h2zM-1.9 23.387h4-4zM11.953 8C4.132 8.438-1.9 15.26-1.9 23.387h4c0-6.2 4.564-11.085 10.077-11.394L11.953 8zm12.285-9.775c-6.794 0-12.403 4.837-14.106 11.259l3.866 1.025c1.288-4.855 5.446-8.284 10.24-8.284v-4zm10.734 4.927C32.316.14 28.5-1.775 24.238-1.775v4c3.025 0 5.777 1.353 7.735 3.573l3-2.646zM41.48-.556c-3.551 0-6.798 1.331-9.32 3.521l2.624 3.02c1.84-1.6 4.17-2.541 6.696-2.541v-4zM55.204 9.469C53.151 3.676 47.83-.556 41.48-.556v4c4.484 0 8.407 2.996 9.954 7.36l3.77-1.335zm.069-1.492c-.774 0-1.535.064-2.279.186l.65 3.947a10.05 10.05 0 011.629-.133v-4zm14.644 15.41c0-8.398-6.447-15.41-14.644-15.41v4c5.77 0 10.644 4.996 10.644 11.41h4zm0 .088v-.088h-4v.067l4 .021zm-4-.01v2.333h4v-2.333h-4zm0 2.333a9 9 0 01-9 9v4c7.18 0 13-5.82 13-13h-4zm-9 9H11.1v4h45.816v-4zm-45.817 0a9 9 0 01-9-9h-4c0 7.18 5.82 13 13 13v-4zm-9-9v-2.41h-4v2.41h4z" mask="url(#a)"></path><rect width="1.045" height="9.404" x="51.825" y="36.275" stroke="#000" stroke-width="1.045" rx=".522"></rect><rect width="1.045" height="5.225" x="57.049" y="44.635" stroke="#000" stroke-width="1.045" rx=".522" transform="rotate(90 57.05 44.635)"></rect><rect width="1.045" height="5.225" x="56.004" y="44.635" stroke="#000" stroke-width="1.045" rx=".522"></rect><rect width="1.045" height="9.404" x="-.522" y=".522" stroke="#000" stroke-width="1.045" rx=".522" transform="matrix(-1 0 0 1 14.729 35.753)"></rect><rect width="1.045" height="13.584" x="-.522" y=".522" stroke="#000" stroke-width="1.045" rx=".522" transform="matrix(-1 0 0 1 33.538 34.708)"></rect><rect width="1.045" height="5.225" x=".522" y=".522" stroke="#000" stroke-width="1.045" rx=".522" transform="matrix(0 1 1 0 9.504 44.112)"></rect><rect width="1.045" height="5.225" x="-.522" y=".522" stroke="#000" stroke-width="1.045" rx=".522" transform="matrix(-1 0 0 1 10.55 44.112)"></rect><rect width="9.404" height="9.404" x="28.314" y="48.292" fill="#fff" rx="2"></rect><rect width="9.404" height="9.404" x="51.302" y="48.292" fill="#fff" rx="2"></rect><rect width="9.404" height="9.404" x="6.37" y="48.292" fill="#fff" rx="2"></rect><rect width="6.27" height="4.18" x="29.358" y="52.472" fill="url(#paint1_linear)" rx="1"></rect><rect width="6.27" height="4.18" x="52.347" y="52.472" fill="url(#paint2_linear)" rx="1"></rect><rect width="6.27" height="4.18" x="7.415" y="52.472" fill="url(#paint3_linear)" rx="1"></rect><rect width="7.404" height="7.404" x="29.314" y="49.292" stroke="#000" stroke-width="2" rx="1"></rect><rect width="7.404" height="7.404" x="52.302" y="49.292" stroke="#000" stroke-width="2" rx="1"></rect><rect width="7.404" height="7.404" x="7.37" y="49.292" stroke="#000" stroke-width="2" rx="1"></rect><defs><linearGradient id="paint0_linear" x1="3.235" x2="46.077" y1="23.968" y2="23.968" gradientUnits="userSpaceOnUse"><stop stop-color="#FFBD39"></stop><stop offset="1" stop-color="#F9953A"></stop></linearGradient><linearGradient id="paint1_linear" x1="29.358" x2="35.628" y1="54.561" y2="54.561" gradientUnits="userSpaceOnUse"><stop stop-color="#FFBD39"></stop><stop offset="1" stop-color="#F9953A"></stop></linearGradient><linearGradient id="paint2_linear" x1="52.347" x2="58.617" y1="54.561" y2="54.561" gradientUnits="userSpaceOnUse"><stop stop-color="#FFBD39"></stop><stop offset="1" stop-color="#F9953A"></stop></linearGradient><linearGradient id="paint3_linear" x1="7.415" x2="13.684" y1="54.561" y2="54.561" gradientUnits="userSpaceOnUse"><stop stop-color="#FFBD39"></stop><stop offset="1" stop-color="#F9953A"></stop></linearGradient></defs></svg>