<svg width="62" height="73" viewBox="0 0 62 73" fill="none" xmlns="http://www.w3.org/2000/svg">
<path d="M8.45836 56.8745C2.8223 49.6157 -0.00224417 41.2843 -0.00224335 31.9067C-0.00224256 22.8821 2.9004 15.3094 8.69266 9.1884C14.4849 3.0805 21.6569 0.0200161 30.1826 0.0200168C38.9686 0.0200176 46.3229 3.05435 52.2583 9.10993C58.1807 15.1917 61.1484 22.699 61.1484 31.632C61.1484 40.1334 58.3629 47.2614 52.805 53.0162C47.234 58.771 40.049 61.9099 31.2109 62.4462L31.2109 72.02C21.6829 69.1819 14.0944 64.1334 8.45836 56.8745Z" fill="#E0E0E0" fill-opacity="0.08"/>
<path d="M36.3359 18.02H40.7173C41.9786 18.02 43.0026 19.044 43.0026 20.3054V24.6867" stroke="#F4F4F4" stroke-width="2" stroke-linecap="round" stroke-linejoin="round"/>
<path d="M28.3333 42.02H21.2853C20.024 42.02 19 40.996 19 39.7347V34.02" stroke="#F4F4F4" stroke-width="2" stroke-linecap="round" stroke-linejoin="round"/>
<path fill-rule="evenodd" clip-rule="evenodd" d="M20.5467 19.4001C18.9214 19.6214 17.6641 21.0001 17.6641 22.6868C17.6641 24.5268 19.1574 26.0201 20.9974 26.0201H28.3294C29.8027 26.0201 30.9961 24.8268 30.9961 23.3534C30.9961 21.8801 29.8027 20.6868 28.3294 20.6868C28.3294 18.4774 26.5387 16.6868 24.3294 16.6868C22.5734 16.6868 21.0827 17.8228 20.5467 19.4001Z" stroke="#F4F4F4" stroke-width="2" stroke-linecap="round" stroke-linejoin="round"/>
<path d="M40.9065 34.948V32.6374C40.9065 31.192 39.7345 30.02 38.2892 30.02V30.02C36.8439 30.02 35.6719 31.192 35.6719 32.6374V34.948" stroke="#F4F4F4" stroke-width="2" stroke-linecap="round" stroke-linejoin="round"/>
<path fill-rule="evenodd" clip-rule="evenodd" d="M41.285 34.9507H35.285C34.3383 34.9507 33.5703 35.7187 33.5703 36.6654V40.3067C33.5703 41.252 34.3383 42.02 35.285 42.02H41.285C42.2316 42.02 42.9996 41.252 42.9996 40.3054V36.664C42.9983 35.7187 42.2303 34.9507 41.285 34.9507V34.9507Z" stroke="#F4F4F4" stroke-width="2" stroke-linecap="round" stroke-linejoin="round"/>
</svg>
