<svg width="62" height="73" viewBox="0 0 62 73" fill="none" xmlns="http://www.w3.org/2000/svg">
<path d="M8.7943 56.8745C3.15824 49.6157 0.333693 41.2843 0.333694 31.9067C0.333695 22.8821 3.23634 15.3094 9.0286 9.1884C14.8209 3.0805 21.9929 0.0200161 30.5185 0.0200168C39.3046 0.0200176 46.6588 3.05435 52.5942 9.10993C58.5167 15.1917 61.4844 22.699 61.4844 31.632C61.4844 40.1334 58.6989 47.2614 53.1409 53.0162C47.5699 58.771 40.3849 61.9099 31.5468 62.4462L31.5468 72.02C22.0189 69.1819 14.4304 64.1334 8.7943 56.8745Z" fill="#E0E0E0" fill-opacity="0.08"/>
<path d="M43.3341 29.3534C43.3341 35.6126 38.26 40.6867 32.0008 40.6867C30.5651 40.6867 29.1917 40.4197 27.9277 39.9327C27.6966 39.8437 27.581 39.7992 27.4891 39.778C27.3987 39.7572 27.3333 39.7485 27.2406 39.7449C27.1464 39.7413 27.043 39.752 26.8362 39.7734L20.0082 40.4792C19.3572 40.5465 19.0317 40.5801 18.8397 40.463C18.6725 40.361 18.5586 40.1906 18.5282 39.9971C18.4934 39.7749 18.649 39.487 18.9601 38.9112L21.1409 34.8744C21.3205 34.542 21.4103 34.3758 21.451 34.216C21.4912 34.0581 21.5009 33.9443 21.488 33.7819C21.475 33.6175 21.4029 33.4035 21.2586 32.9755C20.8753 31.8381 20.6675 30.62 20.6675 29.3534C20.6675 23.0941 25.7416 18.02 32.0008 18.02C38.26 18.02 43.3341 23.0941 43.3341 29.3534Z" stroke="#F4F4F4" stroke-width="2" stroke-linecap="round" stroke-linejoin="round"/>
<path fill-rule="evenodd" clip-rule="evenodd" d="M31.9967 25.9524C30.7971 24.5672 28.7966 24.1946 27.2936 25.463C25.7906 26.7314 25.579 28.852 26.7593 30.3521C27.4906 31.2815 29.326 32.9789 30.6167 34.136C31.0909 34.561 31.3279 34.7735 31.6124 34.8591C31.8565 34.9326 32.1369 34.9326 32.3809 34.8591C32.6655 34.7735 32.9025 34.561 33.3766 34.136C34.6674 32.9789 36.5028 31.2815 37.2341 30.3521C38.4144 28.852 38.2286 26.718 36.6998 25.463C35.1709 24.208 33.1963 24.5672 31.9967 25.9524Z" stroke="#F4F4F4" stroke-width="2" stroke-linecap="round" stroke-linejoin="round"/>
</svg>
