<svg width="62" height="72" viewBox="0 0 62 72" fill="none" xmlns="http://www.w3.org/2000/svg">
<path d="M8.45836 56.8545C2.8223 49.5956 -0.00224417 41.2643 -0.00224335 31.8866C-0.00224256 22.8621 2.9004 15.2894 8.69266 9.16838C14.4849 3.06048 21.6569 -3.45246e-06 30.1826 -2.70712e-06C38.9686 -1.93902e-06 46.3229 3.03433 52.2583 9.08992C58.1807 15.1717 61.1484 22.679 61.1484 31.612C61.1484 40.1133 58.3629 47.2414 52.805 52.9962C47.234 58.751 40.049 61.8899 31.2109 62.4262L31.2109 72C21.6829 69.1618 14.0944 64.1133 8.45836 56.8545Z" fill="#E0E0E0" fill-opacity="0.08"/>
<path d="M23.2027 37.7946C22.2321 36.3226 21.6641 34.5613 21.6641 32.6666" stroke="#F4F4F4" stroke-width="2" stroke-linecap="round" stroke-linejoin="round"/>
<path d="M28.1875 23.1866C28.9715 22.5893 29.9382 22.2213 31.0008 22.2213C33.5782 22.2213 35.6675 24.3106 35.6675 26.888" stroke="#F4F4F4" stroke-width="2" stroke-linecap="round" stroke-linejoin="round"/>
<path d="M26.3359 33.1107C26.3359 35.6881 28.4253 37.7774 31.0026 37.7774C32.0639 37.7774 33.0306 37.4094 33.8159 36.8121" stroke="#F4F4F4" stroke-width="2" stroke-linecap="round" stroke-linejoin="round"/>
<path d="M26.3307 27.7733V33.1067" stroke="#F4F4F4" stroke-width="2" stroke-linecap="round" stroke-linejoin="round"/>
<path d="M31.0026 27.3334V32.6667" stroke="#F4F4F4" stroke-width="2" stroke-linecap="round" stroke-linejoin="round"/>
<path d="M35.6667 26.8933V32.2266" stroke="#F4F4F4" stroke-width="2" stroke-linecap="round" stroke-linejoin="round"/>
<path d="M30.9974 18C25.8427 18 21.6641 22.1787 21.6641 27.3333" stroke="#F4F4F4" stroke-width="2" stroke-linecap="round" stroke-linejoin="round"/>
<path d="M30.9963 42C29.4496 42 27.9949 41.6173 26.7109 40.952" stroke="#F4F4F4" stroke-width="2" stroke-linecap="round" stroke-linejoin="round"/>
<path d="M38.7969 22.2053C39.7675 23.6773 40.3355 25.4387 40.3355 27.3333" stroke="#F4F4F4" stroke-width="2" stroke-linecap="round" stroke-linejoin="round"/>
<path d="M31 42C36.1547 42 40.3333 37.8213 40.3333 32.6666" stroke="#F4F4F4" stroke-width="2" stroke-linecap="round" stroke-linejoin="round"/>
<path d="M31 18C32.5467 18 34.0013 18.3826 35.2853 19.048" stroke="#F4F4F4" stroke-width="2" stroke-linecap="round" stroke-linejoin="round"/>
</svg>
