<svg width="62" height="72" viewBox="0 0 62 72" fill="none" xmlns="http://www.w3.org/2000/svg">
<path d="M9.12243 56.8545C3.48636 49.5956 0.661818 41.2643 0.661819 31.8866C0.66182 22.8621 3.56446 15.2894 9.35673 9.16838C15.149 3.06048 22.321 -3.45246e-06 30.8467 -2.70712e-06C39.6327 -1.93902e-06 46.9869 3.03433 52.9224 9.08992C58.8448 15.1717 61.8125 22.679 61.8125 31.612C61.8125 40.1133 59.027 47.2414 53.469 52.9962C47.8981 58.751 40.713 61.8899 31.875 62.4262L31.875 72C22.347 69.1618 14.7585 64.1133 9.12243 56.8545Z" fill="#E0E0E0" fill-opacity="0.08"/>
<path d="M20.75 35H22.7727C23.2447 35 23.6967 34.8134 24.03 34.48V34.48C24.3633 34.1467 24.55 33.6947 24.55 33.2227V26.1107C24.55 25.6387 24.3633 25.1867 24.03 24.8534V24.8534C23.6967 24.52 23.2447 24.3334 22.7727 24.3334H21.0807" stroke="#F4F4F4" stroke-width="2" stroke-linecap="round" stroke-linejoin="round"/>
<path d="M42.2414 24.3334H40.5508C40.0788 24.3334 39.6268 24.52 39.2934 24.8534V24.8534C38.9601 25.1867 38.7734 25.6387 38.7734 26.1107V33.2227C38.7734 33.6947 38.9601 34.1467 39.2934 34.48V34.48C39.6268 34.8134 40.0788 35 40.5508 35H42.5734" stroke="#F4F4F4" stroke-width="2" stroke-linecap="round" stroke-linejoin="round"/>
<path d="M38.7988 33.5293H37.6522C37.2708 33.5293 36.8935 33.6106 36.5468 33.7693L30.9375 36.324" stroke="#F4F4F4" stroke-width="2" stroke-linecap="round" stroke-linejoin="round"/>
<path d="M29.8587 25.5573C29.1867 25.1667 28.3747 25.0693 27.6254 25.3387L24.5547 26.444" stroke="#F4F4F4" stroke-width="2" stroke-linecap="round" stroke-linejoin="round"/>
<path d="M38.9893 25.248L35.1547 23.56C34.3333 23.1986 33.384 23.2746 32.6307 23.7626L29.1507 26.0173C28.044 26.7333 27.9173 28.304 28.8933 29.1893V29.1893C29.492 29.732 30.3587 29.8626 31.0907 29.5213L33.1653 28.5533" stroke="#F4F4F4" stroke-width="2" stroke-linecap="round" stroke-linejoin="round"/>
<path fill-rule="evenodd" clip-rule="evenodd" d="M31.6641 42C38.2915 42 43.6641 36.6274 43.6641 30C43.6641 23.3726 38.2915 18 31.6641 18C25.0366 18 19.6641 23.3726 19.6641 30C19.6641 36.6274 25.0366 42 31.6641 42Z" stroke="#F4F4F4" stroke-width="2" stroke-linecap="round" stroke-linejoin="round"/>
<path d="M33.1674 28.552L34.2208 29.508C35.3848 30.5627 35.3888 32.3893 34.2314 33.4507L31.5421 35.912C30.5274 36.8427 28.9701 36.8453 27.9514 35.9213L26.1034 34.2453C25.6661 33.8493 25.1088 33.6267 24.5234 33.5787" stroke="#F4F4F4" stroke-width="2" stroke-linecap="round" stroke-linejoin="round"/>
</svg>
