<svg width="62" height="73" viewBox="0 0 62 73" fill="none" xmlns="http://www.w3.org/2000/svg">
<path d="M9.12243 56.8745C3.48636 49.6157 0.661818 41.2843 0.661819 31.9067C0.66182 22.8821 3.56446 15.3094 9.35673 9.1884C15.149 3.0805 22.321 0.0200161 30.8467 0.0200168C39.6327 0.0200176 46.9869 3.05435 52.9224 9.10993C58.8448 15.1917 61.8125 22.699 61.8125 31.632C61.8125 40.1334 59.027 47.2614 53.469 53.0162C47.8981 58.771 40.713 61.9099 31.875 62.4462L31.875 72.02C22.347 69.1819 14.7585 64.1334 9.12243 56.8745Z" fill="#E0E0E0" fill-opacity="0.08"/>
<path d="M26.7227 28.2934C26.7227 28.0761 26.5467 27.9014 26.3307 27.9014C26.1134 27.9028 25.9387 28.0788 25.9387 28.2948C25.9387 28.5121 26.1147 28.6868 26.3307 28.6868C26.5467 28.6868 26.7227 28.5108 26.7227 28.2934" stroke="#F4F4F4" stroke-width="2" stroke-linecap="round" stroke-linejoin="round"/>
<path d="M26.3281 27.9014V21.3534C26.3281 19.512 27.8201 18.02 29.6615 18.02V18.02C31.5028 18.02 32.9948 19.512 32.9948 21.3534V22.116" stroke="#F4F4F4" stroke-width="2" stroke-linecap="round" stroke-linejoin="round"/>
<path d="M29.2109 34.264C30.2869 35.008 31.5883 35.4493 32.9949 35.4493C33.8776 35.4493 34.7149 35.2693 35.4856 34.9573L39.4976 38.964C39.7483 39.2133 40.0869 39.3533 40.4389 39.3533H42.3283C43.0643 39.3533 43.6616 38.756 43.6616 38.02V36.1373C43.6616 35.7826 43.5203 35.444 43.2696 35.1933L39.2109 31.14C39.4909 30.4053 39.6616 29.616 39.6616 28.7826C39.6616 25.1013 36.6763 22.116 32.9949 22.116C31.9496 22.116 30.9736 22.3773 30.0936 22.8066" stroke="#F4F4F4" stroke-width="2" stroke-linecap="round" stroke-linejoin="round"/>
<path fill-rule="evenodd" clip-rule="evenodd" d="M23.6691 34.3773C22.9264 34.0533 22.2251 33.6013 21.6171 32.9933C19.0131 30.3893 19.0131 26.1693 21.6171 23.5653C24.2211 20.9613 28.4411 20.9613 31.0451 23.5653C33.6491 26.1693 33.6491 30.3893 31.0451 32.9933C30.4397 33.5986 29.7411 34.048 29.0024 34.372L29.0064 40.0213C29.0064 40.376 28.8664 40.7146 28.6157 40.9653L27.2851 42.296C26.7637 42.8173 25.9197 42.8173 25.3997 42.296L24.0637 40.96C23.8144 40.7106 23.6731 40.372 23.6731 40.0186L23.6691 34.3773Z" stroke="#F4F4F4" stroke-width="2" stroke-linecap="round" stroke-linejoin="round"/>
</svg>
